<svg height="512pt" viewBox="-1 0 512 512" width="512pt" xmlns="http://www.w3.org/2000/svg"><path d="m300 436.5v51.5h-90v-51.5c0-8.28125 6.71875-15 15-15h60c8.28125 0 15 6.71875 15 15zm0 0" fill="#165771"/><path d="m300 436.5v51.5h-45v-66.5h30c8.28125 0 15 6.71875 15 15zm0 0" fill="#0c3f60"/><path d="m475 121h-440c-19.300781 0-35 15.699219-35 35v260c0 19.300781 15.699219 35 35 35h440c19.300781 0 35-15.699219 35-35v-260c0-19.300781-15.699219-35-35-35zm0 0" fill="#1c6c94"/><path d="m510 156v260c0 19.300781-15.699219 35-35 35h-220v-330h220c19.300781 0 35 15.699219 35 35zm0 0" fill="#165771"/><path d="m480 156v205h-450v-205c0-2.761719 2.238281-5 5-5h440c2.761719 0 5 2.238281 5 5zm0 0" fill="#30d9f6"/><path d="m480 156v205h-225v-210h220c2.761719 0 5 2.238281 5 5zm0 0" fill="#19c0ef"/><path d="m420 15v346h-330v-346c0-8.28125 6.71875-15 15-15h300c8.28125 0 15 6.71875 15 15zm0 0" fill="#e0f4fe"/><path d="m420 15v346h-165v-361h150c8.28125 0 15 6.71875 15 15zm0 0" fill="#bcdcfe"/><path d="m330 482h-150c-8.285156 0-15 6.714844-15 15s6.714844 15 15 15h150c8.285156 0 15-6.714844 15-15s-6.714844-15-15-15zm0 0" fill="#1c6c94"/><path d="m345 497c0 8.28125-6.71875 15-15 15h-75v-30h75c8.28125 0 15 6.71875 15 15zm0 0" fill="#165771"/><path d="m345 61h-180c-8.285156 0-15 6.714844-15 15v60c0 8.285156 6.714844 15 15 15h180c8.285156 0 15-6.714844 15-15v-60c0-8.285156-6.714844-15-15-15zm0 0" fill="#fcbe29"/><path d="m360 76v60c0 8.28125-6.71875 15-15 15h-90v-90h90c8.28125 0 15 6.71875 15 15zm0 0" fill="#fe9022"/><path d="m345 181h-180c-8.285156 0-15 6.714844-15 15s6.714844 15 15 15h180c8.285156 0 15-6.714844 15-15s-6.714844-15-15-15zm0 0" fill="#fcbe29"/><path d="m360 196c0 8.28125-6.71875 15-15 15h-90v-30h90c8.28125 0 15 6.71875 15 15zm0 0" fill="#fe9022"/><path d="m270 315v46h-120v-46c0-8.28125 6.71875-15 15-15h90c8.28125 0 15 6.71875 15 15zm0 0" fill="#fcbe29"/><path d="m270 315v46h-15v-61c8.28125 0 15 6.71875 15 15zm0 0" fill="#fe9022"/><path d="m345 240h-180c-8.285156 0-15 6.714844-15 15s6.714844 15 15 15h180c8.285156 0 15-6.714844 15-15s-6.714844-15-15-15zm0 0" fill="#fcbe29"/><g fill="#fe9022"><path d="m360 255c0 8.28125-6.71875 15-15 15h-90v-30h90c8.28125 0 15 6.71875 15 15zm0 0"/><path d="m345 300h-30c-8.285156 0-15 6.714844-15 15s6.714844 15 15 15h30c8.285156 0 15-6.714844 15-15s-6.714844-15-15-15zm0 0"/></g></svg>