<svg id="Layer_1" height="512" viewBox="0 0 64 64" width="512" xmlns="http://www.w3.org/2000/svg"><g><circle cx="11.5" cy="31.15" fill="#999" r="2.5"/><path d="m11.51 22.81 11.33 8.68s-.95 3.78-7.59 6.66l-4.25 1.85c-6.82 1.86-10-1.23-10-1.23l4.34-13.99c.41-1.32 1.48-2.33 2.81-2.66 1.17-.29 2.41-.04 3.36.69zm2.49 8.34c0-1.38-1.12-2.5-2.5-2.5s-2.5 1.12-2.5 2.5c0 1.39 1.12 2.5 2.5 2.5s2.5-1.11 2.5-2.5z" fill="#b3b3b3"/><path d="m54 37s-2.36 4.72-3.46 10.09l-3.83 1.71c-.5.22-1.03.33-1.56.33-1.14 0-2.25-.51-3-1.44-1.22-1.53-1.1-3.74.28-5.12l2.09-2.09c4.85-1.11 9.48-3.48 9.48-3.48z" fill="#f7a539"/><path d="m44.52 40.48c-1.89.44-3.82.68-5.52.52-4.65-.45-8.05-1.99-9-5-.84-2.64 1-5 1-5s6 3 12 2c5.03-.84 5-2 8-3s5 1 5 1l3-5 4 2-3 5s2 2 2 6-5 8-5 14 2 9 2 9-2 1-5 0c-2.85-.95-4-3-4-10 0-1.62.21-3.3.54-4.91 1.1-5.37 3.46-10.09 3.46-10.09s-4.63 2.37-9.48 3.48z" fill="#ffcc3e"/><path d="m52 10c0 3-1 4-1 4s1 1 1 4c0 7-9 9-9 9 4-6 0-9 0-9s3-1 3-4-3-4-3-4 4-2 0-9c0 0 9 2 9 9z" fill="#d84c4c"/><path d="m27 27s-9-2-9-9c0-3 1-4 1-4s-1-1-1-4c0-7 9-9 9-9-4 6 0 9 0 9s-3 1-3 4 3 4 3 4-4 2 0 9z" fill="#d84c4c"/><path d="m43 10s3 1 3 4-3 4-3 4 4 3 0 9c0 0-2-9-8-9s-8 9-8 9c-4-7 0-9 0-9s-3-1-3-4 3-4 3-4-4-3 0-9c0 0 2 9 8 9s8-9 8-9c4 7 0 9 0 9z" fill="#ffcc3e"/></g><g fill="#999"><path d="m37 15h-4c-.553 0-1-.447-1-1s.447-1 1-1h4c.553 0 1 .447 1 1s-.447 1-1 1z"/><path d="m36 56 3-6s-5.67-.14-9 4c-1.369-.498-2.613-1.07-3.745-1.689l3.345-2.511c.441-.332.53-.958.199-1.4-.331-.441-.956-.529-1.4-.199l-3.98 2.988c-.799-.541-1.532-1.103-2.2-1.679l5.229-2.614c.494-.247.694-.848.447-1.342s-.848-.693-1.342-.447l-5.865 2.933c-.695-.737-1.311-1.481-1.843-2.219l7.398-1.85c.536-.134.862-.677.728-1.212-.134-.536-.679-.863-1.212-.728l-8.068 2.017c-.439-.745-.812-1.468-1.121-2.151l8.648-1.92c.539-.12.879-.654.76-1.193-.12-.539-.654-.874-1.193-.76l-8.967 1.991c-.254-.724-.439-1.364-.566-1.864l-4.25 1.85c.157.467.365 1.134.652 1.934l-7.359 7.359c-.391.391-.391 1.023 0 1.414.594.542 1.219.195 1.414 0l6.754-6.754c.211.477.441.97.708 1.486l-6.001 9.007c-.307.46-.168 1.061.277 1.387.572.418 1.194.012 1.387-.277l5.458-8.191c.25.396.521.793.809 1.195l-4.013 9.035c-.224.505.011 1.078.508 1.32.655.32 1.154-.136 1.32-.508l3.581-8.063c.409.467.846.931 1.315 1.387l-1.787 8.052c-.119.539.241 1.004.76 1.193.552.201 1.09-.294 1.193-.76l1.552-6.99c.464.371.955.731 1.472 1.082v7.691c0 .553.447 1 1 1s1-.447 1-1v-6.461c.313.172.644.335.974.499l2.064 7.236c.126.439.526.726.961.726.828 0 1.114-.743.963-1.274l-1.605-5.629c.838.329 1.707.638 2.643.903 3 5 11 5 11 5l-4-7z"/></g></svg>