<svg height="512" viewBox="0 0 512 512" width="512" xmlns="http://www.w3.org/2000/svg"><g id="uuid-d2460373-8393-46de-95a5-031ca8201553"><path d="m457.19 386.36c.01 8.14-.07 18.01-.4 27.15h-37.23c-6.92-8.11-17.21-13.25-28.71-13.25s-21.79 5.14-28.7 13.25h-16.85c1.12-25.69 4.56-52.76 4.56-75.45 4.73 2.54 10.82 4.72 51.16 9.81 18.07 2.28 31.1 4.92 40.03 7.93l-1.44.39s-12.05 3.01-12.05 10.2 2.53 19.97 2.53 19.97z" fill="#d44d39"/><path d="m457.19 386.36h-27.1s-2.53-12.78-2.53-19.97 12.05-10.2 12.05-10.2l1.44-.39c11 3.71 15.75 7.97 15.97 12.79 0 0 .16 7.53.17 17.77z" fill="#d44d39"/><path d="m456.78 413.51h.01c-.54 15.25-1.77 28.5-4.4 28.5h-24.01c.14-1.32.21-2.66.21-4.01 0-9.35-3.4-17.9-9.03-24.49z" fill="#d44d39"/><path d="m428.38 442.01c-2 18.96-18.03 33.74-37.53 33.74s-36.98-16.15-37.71-36.36c-.02-.46-.03-.92-.03-1.39 0-9.35 3.4-17.9 9.03-24.49h.01c6.91-8.11 17.21-13.25 28.7-13.25s21.79 5.14 28.71 13.25c5.63 6.59 9.03 15.14 9.03 24.49 0 1.35-.07 2.69-.21 4.01zm-22.43-4.01c0-8.33-6.76-15.09-15.1-15.09s-15.1 6.76-15.1 15.09 6.76 15.1 15.1 15.1 15.1-6.76 15.1-15.1z" fill="#414042"/><path d="m390.85 422.91c8.34 0 15.1 6.76 15.1 15.09s-6.76 15.1-15.1 15.1-15.1-6.76-15.1-15.1 6.76-15.09 15.1-15.09z" fill="#a7a9ac"/><g fill="#d44d39"><path d="m345.3 413.51h16.84c-5.63 6.59-9.03 15.14-9.03 24.49 0 .47.01.93.03 1.39h-7.94c-.4-8.3-.29-17.01.1-25.88z"/><path d="m211.92 342.89c-.06-11.88-.48-56.5 8.51-57.89 9.45-1.45 48.11-3.63 70.64 2.55 22.53 6.17 54.07 47.97 58.79 50.51 0 22.69-3.44 49.76-4.56 75.45h-133.37v-69.05c0-.43 0-.96-.01-1.57zm26.35 5.2h83.73c-3.4-5.68-25.45-31.34-33.34-36.52-13.62-8.93-28.03-8.02-48.31-8.02-3.25 8.15-.52 27.25-2.08 44.54z"/><path d="m211.93 413.51h133.37c-.39 8.87-.5 17.58-.1 25.88h-133.27z"/><path d="m322 348.09h-83.73c1.56-17.29-1.17-36.39 2.08-44.54 20.28 0 34.69-.91 48.31 8.02 7.89 5.18 29.94 30.84 33.34 36.52z"/><path d="m211.93 439.06v.33h-49.18c.02-.46.03-.92.03-1.39 0-9.35-3.4-17.9-9.04-24.49h58.19z"/><path d="m211.93 344.46v69.05h-58.19c-6.91-8.11-17.21-13.25-28.71-13.25s-22.2 5.35-29.12 13.74l-.71-.49h-35.29c-.29 0-.58.02-.87.04v-62.3c-.01-5.08 2.17-8.36 6.17-8.36h146.71c.01.61.01 1.14.01 1.57z"/></g><path d="m153.74 413.51c5.64 6.59 9.04 15.14 9.04 24.49 0 .47-.01.93-.03 1.39-.73 20.21-17.34 36.36-37.72 36.36s-35.54-14.79-37.53-33.77c-.14-1.31-.21-2.64-.21-3.98 0-9.12 3.24-17.48 8.62-24 6.92-8.39 17.4-13.74 29.12-13.74s21.8 5.14 28.71 13.25zm-13.61 24.49c0-8.33-6.76-15.09-15.1-15.09s-15.09 6.76-15.09 15.09 6.76 15.1 15.09 15.1 15.1-6.76 15.1-15.1z" fill="#414042"/><path d="m125.03 422.91c8.34 0 15.1 6.76 15.1 15.09s-6.76 15.1-15.1 15.1-15.09-6.76-15.09-15.1 6.76-15.09 15.09-15.09z" fill="#a7a9ac"/><path d="m95.2 413.51.71.49c-5.38 6.52-8.62 14.88-8.62 24 0 1.34.07 2.67.21 3.98l-.32.03h-27.27c-4.59 0-8.31-3.72-8.31-8.31v-11.89c0-4.29 3.26-7.82 7.44-8.26.29-.02.58-.04.87-.04z" fill="#d44d39"/></g><g id="uuid-a348c6d9-98ea-44db-b9f5-414f4e1df5fb"><path d="m457.19 386.36h-27.1s-2.53-12.78-2.53-19.97 12.05-10.2 12.05-10.2l1.44-.39c11 3.71 15.75 7.97 15.97 12.79 0 0 .16 7.53.17 17.77z" fill="#f2eeb8"/><g fill="#754b45"><path d="m456.78 413.51h.01c-.54 15.25-1.77 28.5-4.4 28.5h-24.01c.14-1.32.21-2.66.21-4.01 0-9.35-3.4-17.9-9.03-24.49z"/><path d="m345.3 413.51h16.84c-5.63 6.59-9.03 15.14-9.03 24.49 0 .47.01.93.03 1.39h-7.94c-.4-8.3-.29-17.01.1-25.88z"/><path d="m345.2 439.39h-133.27v-25.88h133.37c-.39 8.87-.5 17.58-.1 25.88z"/></g><path d="m240.35 303.55c20.28 0 34.69-.91 48.31 8.02 7.89 5.18 29.94 30.84 33.34 36.52h-83.73c1.56-17.29-1.17-36.39 2.08-44.54z" fill="#82e9ff"/><path d="m211.93 439.39h-49.18c.02-.46.03-.92.03-1.39 0-9.35-3.4-17.9-9.04-24.49h58.19z" fill="#754b45"/><path d="m59.91 413.51h35.29l.71.49c-5.38 6.52-8.62 14.88-8.62 24 0 1.34.07 2.67.21 3.98l-.32.03h-27.27c-4.59 0-8.31-3.72-8.31-8.31v-11.89c0-4.29 3.26-7.82 7.44-8.26.29-.02.58-.04.87-.04z" fill="#754b45"/></g><g id="uuid-fe89efb1-7ec9-43e6-a79a-46c17558e2a4"><g fill="#2e0000"><path d="m463.01 368.46c1.09-28.27-97.39-26.59-110.09-35.57-15.55-15.83-38.42-44.82-60.26-51.13-24.42-6.7-64.55-4.01-73.14-2.69-14.29.45-13.43 44.15-13.61 57.82h-140.7c-6.06 0-12.18 4.44-12.18 14.36v58.02c-4.42 2.44-7.43 7.14-7.43 12.54v11.89c0 7.89 6.42 14.31 14.31 14.31h27.27c7.94-.27 7.95-11.72 0-12h-27.27c-1.27 0-2.31-1.04-2.31-2.31v-11.89c0-1.27 1.04-2.31 2.31-2.31h35.29c3.31 0 6-2.69 6-6s-2.69-6-6-6h-30.17v-56.25c0-1.31.21-2.03.35-2.36h140.55v58.61h-52.2c-3.31 0-6 2.69-6 6s2.69 6 6 6h52.2v13.88h-41.91c-3.31 0-6 2.69-6 6s2.69 6 6 6h187.67c8.33-.37 7.76-12.45-.7-12-.09-4.53-.05-9.17.08-13.88h11.07c3.31 0 6-2.69 6-6s-2.69-6-6-6h-10.54c1.11-19.86 3.5-41.63 4.1-60.82 5.53 2.51 55.18 7.9 70.93 11.47-2.07 2.1-3.58 4.8-3.58 8.23 0 7.55 2.52 20.31 2.62 20.85.42 2.11 2.27 3.62 4.41 3.62h21.11c-.02 5.75-.1 11.38-.24 16.64h-31.41c-3.31 0-6 2.69-6 6s2.69 6 6 6h30.97c-.38 7.39-.9 13.26-1.59 16.5h-16.32c-7.93.27-7.95 11.73 0 12h19.78c1.86 0 3.64-.76 5-2.15 2.11-2.16 5.01-5.12 5.67-42.67.31-17.5-.04-34.55-.05-34.72zm-124.02 64.93h-121.06v-13.88h121.14c-.13 4.69-.17 9.33-.08 13.88zm-121.06-25.88v-63.05c0-.63 0-1.56 0-2.3-.22-39.21 3.02-48.98 4.49-51.38 9.69-1.23 45.72-3.31 67.07 2.55 18.31 5.55 40.71 33.51 54.35 47.49-.25 20.54-3.08 45.04-4.25 66.68h-121.65zm214.12-41.12c0-1.88 3.3-3.92 6.43-5.12 11.58 3.75 12.48 6.9 12.53 7.55.09 4.27.15 8.65.17 13.05h-17.35c-.73-4.19-1.79-11.07-1.79-15.48z"/><path d="m291.95 306.56c-14.93-10.05-32.49-9.03-51.6-9.01-2.46 0-4.67 1.5-5.58 3.78-2.31 5.82-2.19 14.67-2.05 24.91.1 7.04.2 14.32-.43 21.32-.15 1.68.41 3.34 1.55 4.59s2.74 1.95 4.43 1.95h83.73c4.51.14 7.6-5.28 5.15-9.08-3.59-6-26.05-32.45-35.2-38.45zm-47.29 35.54c.52-10.51-.55-23.17.43-32.56 37.28-.83 40.55 4.47 64.74 32.56z"/></g><g fill="#262626"><path d="m125.03 481.75c-24.12 0-43.74-19.62-43.74-43.74 2.4-58.03 85.09-58.01 87.48 0 0 24.12-19.62 43.74-43.74 43.74zm0-75.49c-17.5 0-31.74 14.24-31.74 31.74 1.74 42.11 61.75 42.1 63.48 0 0-17.5-14.24-31.74-31.74-31.74z"/><path d="m390.85 481.75c-24.12 0-43.74-19.62-43.74-43.74 2.4-58.03 85.09-58.01 87.49 0 0 24.12-19.62 43.74-43.74 43.74zm0-75.49c-17.5 0-31.74 14.24-31.74 31.74 1.74 42.11 61.75 42.1 63.49 0 0-17.5-14.24-31.74-31.74-31.74z"/><path d="m125.03 457.6c-10.81 0-19.6-8.79-19.6-19.6s8.79-19.6 19.6-19.6 19.6 8.79 19.6 19.6-8.79 19.6-19.6 19.6zm0-30.19c-5.84 0-10.6 4.75-10.6 10.6s4.75 10.6 10.6 10.6 10.6-4.75 10.6-10.6-4.75-10.6-10.6-10.6z"/><path d="m390.85 457.6c-10.81 0-19.6-8.79-19.6-19.6s8.79-19.6 19.6-19.6 19.6 8.79 19.6 19.6-8.79 19.6-19.6 19.6zm0-30.19c-5.84 0-10.6 4.75-10.6 10.6s4.75 10.6 10.6 10.6 10.6-4.75 10.6-10.6-4.75-10.6-10.6-10.6z"/></g></g></svg>