<svg id="flat" height="512" viewBox="0 0 512 512" width="512" xmlns="http://www.w3.org/2000/svg"><path d="m344 344h-208v-280h48v104h32a16 16 0 0 1 16-16h16a16 16 0 0 1 16 16h32v-104h48z" fill="#79b53f"/><path d="m312 64v152a80 80 0 0 1 -80 80 80 80 0 0 1 -80-80v-152h-16v280h208v-280z" fill="#64962f"/><path d="m464 72h-55.844a21.417 21.417 0 0 0 -20.594 15.534l-27.562 96.466v8h32v-8l24-80h48a16 16 0 0 0 16-16 16 16 0 0 0 -16-16z" fill="#eeaaa8"/><path d="m440 456h-128l-32-208v-16h192v16z" fill="#252364"/><path d="m296 232h-16v16l32 208h16l-32-208z" fill="#4e52a8"/><path d="m472 216v16h-192v-16l8-32h176z" fill="#e97867"/><path d="m264 216h224v32h-224z" fill="#af4f45"/><g fill="#e97867"><path d="m288 232h16v16h-16z"/><path d="m320 232h16v16h-16z"/><path d="m352 232h16v16h-16z"/><path d="m384 232h16v16h-16z"/><path d="m416 232h16v16h-16z"/><path d="m448 232h16v16h-16z"/></g><path d="m312 456h128l14.769-96h-157.538z" fill="#7b81c6"/><path d="m40 424 32 64h224l32-64v-8h-288z" fill="#4895aa"/><path d="m176 192h16v16h-16z" fill="#64962f"/><path d="m176 232h16v32h-16z" fill="#64962f"/><path d="m136 424 16 32h64l16-32z" fill="#2a6377"/><path d="m120.705 344h-65.405a31.3 31.3 0 0 1 -31.3-31.295v-34.211a27.5 27.5 0 0 1 2.9-12.3 27.51 27.51 0 0 0 1.493-21l-4.393-13.194v-66.1a143.241 143.241 0 0 1 26.681-83.254l13.319-18.646v-8h48v8l13.319 18.646a143.241 143.241 0 0 1 26.681 83.254v66.1l-4.4 13.19a27.51 27.51 0 0 0 1.493 21 27.5 27.5 0 0 1 2.9 12.3v34.211a31.3 31.3 0 0 1 -31.288 31.299z" fill="#2993ce"/><path d="m152 232v-66.1a143.241 143.241 0 0 0 -26.681-83.258l-13.319-18.642v-8h-16v8l13.319 18.646a143.241 143.241 0 0 1 26.681 83.254v66.1l-4.4 13.19a27.51 27.51 0 0 0 1.493 21 27.5 27.5 0 0 1 2.9 12.3v34.211a31.3 31.3 0 0 1 -31.288 31.299h16a31.3 31.3 0 0 0 31.3-31.3v-34.206a27.5 27.5 0 0 0 -2.9-12.3 27.51 27.51 0 0 1 -1.493-21z" fill="#045f9c"/><path d="m64 24h48v40h-48z" fill="#da8583"/><path d="m96 24h16v40h-16z" fill="#af1e4b"/><path d="m24 168h128v64h-128z" fill="#da8583"/><path d="m152 232h-128v-48a42.246 42.246 0 0 0 40.985 32h20.769a42.246 42.246 0 0 0 42.246-42.246v-5.754h24z" fill="#af1e4b"/><path d="m40 392 32-64h224l32 64v8h-288z" fill="#96d6e4"/><path d="m296 328h-16a40.174 40.174 0 0 1 -36.926 56h-199.074l-4 8v8h288v-8z" fill="#4895aa"/><rect fill="#fff" height="16" rx="8" transform="matrix(.707 -.707 .707 .707 -186.274 121.608)" width="32" x="37.657" y="277.657"/><rect fill="#fff" height="16" rx="8" transform="matrix(.707 -.707 .707 .707 -66.108 75.716)" width="32" x="42.343" y="109.657"/><rect fill="#96d6e4" height="32" rx="16" width="320" x="24" y="392"/><circle cx="56" cy="144" fill="#fff" r="8"/></svg>